<?xml version="1.0" ?>
<!-- Uploaded to: SVG Repo, www.svgrepo.com, Generator: SVG Repo Mixer Tools -->
<svg width="800px" height="800px" viewBox="0 0 64.002 64.002" data-name="Low  Glass" id="Low_Glass" xmlns="http://www.w3.org/2000/svg">
<rect fill="none" height="64.002" id="rect2317-6" transform="translate(0 0)" width="64"/>
<g id="g2088" transform="translate(10.878 4.295)">
<path d="M1.66,1.657,6.351,54.409H35.668L40.359,1.657H1.66M1.66-.6h38.7a2.254,2.254,0,0,1,2.248,2.452L37.916,54.609a2.255,2.255,0,0,1-2.248,2.054H6.351A2.255,2.255,0,0,1,4.1,54.609L-.587,1.856A2.254,2.254,0,0,1,1.66-.6Z" id="path2090" transform="translate(0.596 0.596)"/>
</g>
<g id="g2092" transform="translate(19.076 47.399)">
<path d="M.67,9.31a17.048,17.048,0,0,1,9.309-1.3c4.872.851,4.4,2.341,9.436,2.913a12.627,12.627,0,0,0,8.128-1.555l-.677,8.151H1.4Z" id="path2094" transform="translate(-0.67 -7.81)"/>
</g>
</svg>